<mxfile host="app.diagrams.net" modified="2021-12-08T07:20:37.678Z" agent="5.0 (Windows NT 10.0; Win64; x64) AppleWebKit/537.36 (KHTML, like Gecko) Chrome/96.0.4664.93 Safari/537.36" etag="NQsXEoJNthx6ydY63Kxd" version="15.5.6" type="github">
  <diagram id="qNTfFx05dR7app6adQy7" name="Page-1">
    <mxGraphModel dx="2586" dy="1886" grid="1" gridSize="10" guides="1" tooltips="1" connect="1" arrows="1" fold="1" page="1" pageScale="1" pageWidth="850" pageHeight="1100" math="0" shadow="0">
      <root>
        <mxCell id="0" />
        <mxCell id="1" parent="0" />
        <mxCell id="xZTJwvYUBietxe5GfV1g-2" value="" style="endArrow=classic;html=1;rounded=0;strokeWidth=6;" edge="1" parent="1">
          <mxGeometry width="50" height="50" relative="1" as="geometry">
            <mxPoint x="120" y="200" as="sourcePoint" />
            <mxPoint x="480" y="200" as="targetPoint" />
          </mxGeometry>
        </mxCell>
        <mxCell id="xZTJwvYUBietxe5GfV1g-5" value="&lt;font style=&quot;font-size: 22px&quot;&gt;2001&lt;/font&gt;" style="text;html=1;strokeColor=none;fillColor=none;align=center;verticalAlign=middle;whiteSpace=wrap;rounded=0;" vertex="1" parent="1">
          <mxGeometry x="130" y="210" width="60" height="30" as="geometry" />
        </mxCell>
        <mxCell id="xZTJwvYUBietxe5GfV1g-6" value="" style="endArrow=none;html=1;rounded=0;fontSize=22;strokeWidth=3;" edge="1" parent="1">
          <mxGeometry width="50" height="50" relative="1" as="geometry">
            <mxPoint x="160" y="200" as="sourcePoint" />
            <mxPoint x="210" y="150" as="targetPoint" />
          </mxGeometry>
        </mxCell>
        <mxCell id="xZTJwvYUBietxe5GfV1g-7" value="&lt;font style=&quot;font-size: 22px&quot;&gt;2004&lt;/font&gt;" style="text;html=1;strokeColor=none;fillColor=none;align=center;verticalAlign=middle;whiteSpace=wrap;rounded=0;" vertex="1" parent="1">
          <mxGeometry x="210" y="210" width="60" height="30" as="geometry" />
        </mxCell>
        <mxCell id="xZTJwvYUBietxe5GfV1g-8" value="&lt;font style=&quot;font-size: 22px&quot;&gt;2006&lt;/font&gt;" style="text;html=1;strokeColor=none;fillColor=none;align=center;verticalAlign=middle;whiteSpace=wrap;rounded=0;" vertex="1" parent="1">
          <mxGeometry x="290" y="210" width="60" height="30" as="geometry" />
        </mxCell>
        <mxCell id="xZTJwvYUBietxe5GfV1g-9" value="&lt;font style=&quot;font-size: 22px&quot;&gt;2008&lt;/font&gt;" style="text;html=1;strokeColor=none;fillColor=none;align=center;verticalAlign=middle;whiteSpace=wrap;rounded=0;" vertex="1" parent="1">
          <mxGeometry x="370" y="210" width="60" height="30" as="geometry" />
        </mxCell>
        <mxCell id="xZTJwvYUBietxe5GfV1g-10" value="&lt;font style=&quot;font-size: 22px&quot;&gt;2012&lt;/font&gt;" style="text;html=1;strokeColor=none;fillColor=none;align=center;verticalAlign=middle;whiteSpace=wrap;rounded=0;" vertex="1" parent="1">
          <mxGeometry x="480" y="210" width="60" height="30" as="geometry" />
        </mxCell>
        <mxCell id="xZTJwvYUBietxe5GfV1g-11" value="" style="endArrow=none;dashed=1;html=1;rounded=0;fontSize=22;strokeWidth=4;dashPattern=1 2;" edge="1" parent="1">
          <mxGeometry width="50" height="50" relative="1" as="geometry">
            <mxPoint x="510" y="200" as="sourcePoint" />
            <mxPoint x="580" y="200" as="targetPoint" />
          </mxGeometry>
        </mxCell>
        <mxCell id="xZTJwvYUBietxe5GfV1g-14" value="" style="endArrow=none;html=1;rounded=0;fontSize=22;strokeWidth=6;" edge="1" parent="1">
          <mxGeometry width="50" height="50" relative="1" as="geometry">
            <mxPoint x="600" y="200" as="sourcePoint" />
            <mxPoint x="680" y="200" as="targetPoint" />
          </mxGeometry>
        </mxCell>
        <mxCell id="xZTJwvYUBietxe5GfV1g-15" value="" style="endArrow=none;html=1;rounded=0;fontSize=22;strokeWidth=6;" edge="1" parent="1">
          <mxGeometry width="50" height="50" relative="1" as="geometry">
            <mxPoint x="680" y="200" as="sourcePoint" />
            <mxPoint x="750" y="130" as="targetPoint" />
          </mxGeometry>
        </mxCell>
        <mxCell id="xZTJwvYUBietxe5GfV1g-16" value="" style="endArrow=none;html=1;rounded=0;fontSize=22;strokeWidth=6;" edge="1" parent="1">
          <mxGeometry width="50" height="50" relative="1" as="geometry">
            <mxPoint x="680" y="200" as="sourcePoint" />
            <mxPoint x="750" y="270" as="targetPoint" />
          </mxGeometry>
        </mxCell>
        <mxCell id="xZTJwvYUBietxe5GfV1g-17" value="" style="endArrow=classic;html=1;rounded=0;strokeWidth=6;" edge="1" parent="1">
          <mxGeometry width="50" height="50" relative="1" as="geometry">
            <mxPoint x="748" y="130" as="sourcePoint" />
            <mxPoint x="1370" y="130" as="targetPoint" />
          </mxGeometry>
        </mxCell>
        <mxCell id="xZTJwvYUBietxe5GfV1g-18" value="" style="endArrow=classic;html=1;rounded=0;strokeWidth=6;" edge="1" parent="1">
          <mxGeometry width="50" height="50" relative="1" as="geometry">
            <mxPoint x="748" y="270" as="sourcePoint" />
            <mxPoint x="1380" y="270" as="targetPoint" />
          </mxGeometry>
        </mxCell>
        <mxCell id="xZTJwvYUBietxe5GfV1g-19" value="" style="endArrow=none;html=1;rounded=0;fontSize=22;strokeWidth=3;" edge="1" parent="1">
          <mxGeometry width="50" height="50" relative="1" as="geometry">
            <mxPoint x="320" y="200" as="sourcePoint" />
            <mxPoint x="470" y="50" as="targetPoint" />
          </mxGeometry>
        </mxCell>
        <mxCell id="xZTJwvYUBietxe5GfV1g-20" value="" style="endArrow=none;html=1;rounded=0;fontSize=22;strokeWidth=3;" edge="1" parent="1">
          <mxGeometry width="50" height="50" relative="1" as="geometry">
            <mxPoint x="400" y="200" as="sourcePoint" />
            <mxPoint x="610" y="-10" as="targetPoint" />
          </mxGeometry>
        </mxCell>
        <mxCell id="xZTJwvYUBietxe5GfV1g-21" value="&lt;div style=&quot;text-align: left&quot;&gt;&lt;font style=&quot;font-size: 20px&quot;&gt;VJ Det.&lt;/font&gt;&lt;/div&gt;&lt;font size=&quot;1&quot;&gt;&lt;div style=&quot;text-align: left ; font-size: 20px&quot;&gt;(P. Viola and M. Jones)&lt;/div&gt;&lt;/font&gt;" style="text;html=1;strokeColor=none;fillColor=none;align=center;verticalAlign=middle;whiteSpace=wrap;rounded=0;fontSize=22;" vertex="1" parent="1">
          <mxGeometry x="-30" y="80" width="250" height="90" as="geometry" />
        </mxCell>
        <mxCell id="xZTJwvYUBietxe5GfV1g-22" value="&lt;div&gt;&lt;span style=&quot;font-size: 20px&quot;&gt;HOG Det.&lt;/span&gt;&lt;/div&gt;&lt;font style=&quot;font-size: 20px&quot;&gt;&lt;div&gt;&lt;span&gt;(N. Dalal and B.&lt;/span&gt;&lt;span&gt;Triggs)&lt;/span&gt;&lt;/div&gt;&lt;/font&gt;" style="text;html=1;strokeColor=none;fillColor=none;align=left;verticalAlign=middle;whiteSpace=wrap;rounded=0;fontSize=22;" vertex="1" parent="1">
          <mxGeometry x="240" width="210" height="90" as="geometry" />
        </mxCell>
        <mxCell id="xZTJwvYUBietxe5GfV1g-23" value="&lt;div style=&quot;text-align: left&quot;&gt;&lt;span style=&quot;font-size: 20px&quot;&gt;DPM&lt;/span&gt;&lt;/div&gt;&lt;font style=&quot;font-size: 20px&quot;&gt;&lt;div style=&quot;text-align: left&quot;&gt;&lt;span&gt;(P. Felzenszwalb)&lt;/span&gt;&lt;/div&gt;&lt;/font&gt;" style="text;html=1;strokeColor=none;fillColor=none;align=center;verticalAlign=middle;whiteSpace=wrap;rounded=0;fontSize=22;" vertex="1" parent="1">
          <mxGeometry x="420" y="-30" width="180" height="30" as="geometry" />
        </mxCell>
        <mxCell id="xZTJwvYUBietxe5GfV1g-24" value="&lt;font style=&quot;font-size: 22px&quot;&gt;2014&lt;/font&gt;" style="text;html=1;strokeColor=none;fillColor=none;align=center;verticalAlign=middle;whiteSpace=wrap;rounded=0;" vertex="1" parent="1">
          <mxGeometry x="770" y="140" width="60" height="30" as="geometry" />
        </mxCell>
        <mxCell id="xZTJwvYUBietxe5GfV1g-25" value="&lt;font style=&quot;font-size: 22px&quot;&gt;2015&lt;/font&gt;" style="text;html=1;strokeColor=none;fillColor=none;align=center;verticalAlign=middle;whiteSpace=wrap;rounded=0;" vertex="1" parent="1">
          <mxGeometry x="850" y="140" width="60" height="30" as="geometry" />
        </mxCell>
        <mxCell id="xZTJwvYUBietxe5GfV1g-26" value="&lt;font style=&quot;font-size: 22px&quot;&gt;2016&lt;/font&gt;" style="text;html=1;strokeColor=none;fillColor=none;align=center;verticalAlign=middle;whiteSpace=wrap;rounded=0;" vertex="1" parent="1">
          <mxGeometry x="930" y="140" width="60" height="30" as="geometry" />
        </mxCell>
        <mxCell id="xZTJwvYUBietxe5GfV1g-27" value="&lt;font style=&quot;font-size: 22px&quot;&gt;2017&lt;/font&gt;" style="text;html=1;strokeColor=none;fillColor=none;align=center;verticalAlign=middle;whiteSpace=wrap;rounded=0;" vertex="1" parent="1">
          <mxGeometry x="1010" y="140" width="60" height="30" as="geometry" />
        </mxCell>
        <mxCell id="xZTJwvYUBietxe5GfV1g-28" value="&lt;font style=&quot;font-size: 22px&quot;&gt;2018&lt;/font&gt;" style="text;html=1;strokeColor=none;fillColor=none;align=center;verticalAlign=middle;whiteSpace=wrap;rounded=0;" vertex="1" parent="1">
          <mxGeometry x="1090" y="140" width="60" height="30" as="geometry" />
        </mxCell>
        <mxCell id="xZTJwvYUBietxe5GfV1g-29" value="&lt;font style=&quot;font-size: 22px&quot;&gt;2019&lt;/font&gt;" style="text;html=1;strokeColor=none;fillColor=none;align=center;verticalAlign=middle;whiteSpace=wrap;rounded=0;" vertex="1" parent="1">
          <mxGeometry x="1170" y="140" width="60" height="30" as="geometry" />
        </mxCell>
        <mxCell id="xZTJwvYUBietxe5GfV1g-30" value="&lt;font style=&quot;font-size: 22px&quot;&gt;2014&lt;/font&gt;" style="text;html=1;strokeColor=none;fillColor=none;align=center;verticalAlign=middle;whiteSpace=wrap;rounded=0;" vertex="1" parent="1">
          <mxGeometry x="770" y="230" width="60" height="30" as="geometry" />
        </mxCell>
        <mxCell id="xZTJwvYUBietxe5GfV1g-31" value="&lt;font style=&quot;font-size: 22px&quot;&gt;2015&lt;/font&gt;" style="text;html=1;strokeColor=none;fillColor=none;align=center;verticalAlign=middle;whiteSpace=wrap;rounded=0;" vertex="1" parent="1">
          <mxGeometry x="850" y="230" width="60" height="30" as="geometry" />
        </mxCell>
        <mxCell id="xZTJwvYUBietxe5GfV1g-32" value="&lt;font style=&quot;font-size: 22px&quot;&gt;2016&lt;/font&gt;" style="text;html=1;strokeColor=none;fillColor=none;align=center;verticalAlign=middle;whiteSpace=wrap;rounded=0;" vertex="1" parent="1">
          <mxGeometry x="930" y="230" width="60" height="30" as="geometry" />
        </mxCell>
        <mxCell id="xZTJwvYUBietxe5GfV1g-33" value="&lt;font style=&quot;font-size: 22px&quot;&gt;2017&lt;/font&gt;" style="text;html=1;strokeColor=none;fillColor=none;align=center;verticalAlign=middle;whiteSpace=wrap;rounded=0;" vertex="1" parent="1">
          <mxGeometry x="1010" y="230" width="60" height="30" as="geometry" />
        </mxCell>
        <mxCell id="xZTJwvYUBietxe5GfV1g-34" value="&lt;font style=&quot;font-size: 22px&quot;&gt;2018&lt;/font&gt;" style="text;html=1;strokeColor=none;fillColor=none;align=center;verticalAlign=middle;whiteSpace=wrap;rounded=0;" vertex="1" parent="1">
          <mxGeometry x="1090" y="230" width="60" height="30" as="geometry" />
        </mxCell>
        <mxCell id="xZTJwvYUBietxe5GfV1g-35" value="&lt;font style=&quot;font-size: 22px&quot;&gt;2019&lt;/font&gt;" style="text;html=1;strokeColor=none;fillColor=none;align=center;verticalAlign=middle;whiteSpace=wrap;rounded=0;" vertex="1" parent="1">
          <mxGeometry x="1170" y="230" width="60" height="30" as="geometry" />
        </mxCell>
        <mxCell id="xZTJwvYUBietxe5GfV1g-38" value="" style="endArrow=none;html=1;rounded=0;fontSize=22;strokeWidth=3;" edge="1" parent="1">
          <mxGeometry width="50" height="50" relative="1" as="geometry">
            <mxPoint x="940" y="129.99999999999977" as="sourcePoint" />
            <mxPoint x="980" y="50" as="targetPoint" />
          </mxGeometry>
        </mxCell>
        <mxCell id="xZTJwvYUBietxe5GfV1g-39" value="" style="endArrow=none;html=1;rounded=0;fontSize=22;strokeWidth=3;" edge="1" parent="1">
          <mxGeometry width="50" height="50" relative="1" as="geometry">
            <mxPoint x="970" y="129.99999999999977" as="sourcePoint" />
            <mxPoint x="1070" y="-80" as="targetPoint" />
          </mxGeometry>
        </mxCell>
        <mxCell id="xZTJwvYUBietxe5GfV1g-40" value="" style="endArrow=none;html=1;rounded=0;fontSize=22;strokeWidth=3;" edge="1" parent="1">
          <mxGeometry width="50" height="50" relative="1" as="geometry">
            <mxPoint x="1100" y="129.99999999999977" as="sourcePoint" />
            <mxPoint x="1170" y="-10.000000000000227" as="targetPoint" />
          </mxGeometry>
        </mxCell>
        <mxCell id="xZTJwvYUBietxe5GfV1g-41" value="" style="endArrow=none;html=1;rounded=0;fontSize=22;strokeWidth=3;" edge="1" parent="1">
          <mxGeometry width="50" height="50" relative="1" as="geometry">
            <mxPoint x="830" y="320" as="sourcePoint" />
            <mxPoint x="800" y="269.9999999999998" as="targetPoint" />
          </mxGeometry>
        </mxCell>
        <mxCell id="xZTJwvYUBietxe5GfV1g-42" value="" style="endArrow=none;html=1;rounded=0;fontSize=22;strokeWidth=3;exitX=1;exitY=0.25;exitDx=0;exitDy=0;" edge="1" parent="1" source="xZTJwvYUBietxe5GfV1g-53">
          <mxGeometry width="50" height="50" relative="1" as="geometry">
            <mxPoint x="930" y="430" as="sourcePoint" />
            <mxPoint x="839.68" y="270" as="targetPoint" />
          </mxGeometry>
        </mxCell>
        <mxCell id="xZTJwvYUBietxe5GfV1g-43" value="" style="endArrow=none;html=1;rounded=0;fontSize=22;strokeWidth=3;" edge="1" parent="1">
          <mxGeometry width="50" height="50" relative="1" as="geometry">
            <mxPoint x="1020" y="510" as="sourcePoint" />
            <mxPoint x="879.9999999999999" y="270" as="targetPoint" />
          </mxGeometry>
        </mxCell>
        <mxCell id="xZTJwvYUBietxe5GfV1g-44" value="" style="endArrow=none;html=1;rounded=0;fontSize=22;strokeWidth=3;" edge="1" parent="1">
          <mxGeometry width="50" height="50" relative="1" as="geometry">
            <mxPoint x="1080" y="560" as="sourcePoint" />
            <mxPoint x="909.9999999999999" y="270" as="targetPoint" />
          </mxGeometry>
        </mxCell>
        <mxCell id="xZTJwvYUBietxe5GfV1g-45" value="" style="endArrow=none;html=1;rounded=0;fontSize=22;strokeWidth=3;" edge="1" parent="1">
          <mxGeometry width="50" height="50" relative="1" as="geometry">
            <mxPoint x="1080.3200000000002" y="340" as="sourcePoint" />
            <mxPoint x="1040" y="270" as="targetPoint" />
          </mxGeometry>
        </mxCell>
        <mxCell id="xZTJwvYUBietxe5GfV1g-47" value="&lt;b&gt;&lt;font style=&quot;font-size: 19px&quot;&gt;one-stage dector&lt;/font&gt;&lt;/b&gt;" style="text;html=1;strokeColor=none;fillColor=none;align=center;verticalAlign=middle;whiteSpace=wrap;rounded=0;fontSize=15;" vertex="1" parent="1">
          <mxGeometry x="1320" y="80" width="220" height="30" as="geometry" />
        </mxCell>
        <mxCell id="xZTJwvYUBietxe5GfV1g-48" value="&lt;b&gt;&lt;font style=&quot;font-size: 19px&quot;&gt;two-stage dector&lt;/font&gt;&lt;/b&gt;" style="text;html=1;strokeColor=none;fillColor=none;align=center;verticalAlign=middle;whiteSpace=wrap;rounded=0;fontSize=15;" vertex="1" parent="1">
          <mxGeometry x="1320" y="290" width="220" height="30" as="geometry" />
        </mxCell>
        <mxCell id="xZTJwvYUBietxe5GfV1g-49" value="&lt;div style=&quot;text-align: left ; font-size: 24px&quot;&gt;&lt;b&gt;&lt;font style=&quot;font-size: 24px&quot;&gt;YOLO (v1 - v3)&lt;/font&gt;&lt;/b&gt;&lt;/div&gt;&lt;font style=&quot;font-size: 24px&quot;&gt;&lt;div style=&quot;text-align: left&quot;&gt;&lt;b&gt;(&lt;/b&gt;J. Redmon)&lt;/div&gt;&lt;/font&gt;" style="text;html=1;strokeColor=#B20000;fillColor=#e51400;align=center;verticalAlign=middle;whiteSpace=wrap;rounded=0;fontSize=22;fontColor=#ffffff;" vertex="1" parent="1">
          <mxGeometry x="800" y="-20" width="190" height="70" as="geometry" />
        </mxCell>
        <mxCell id="xZTJwvYUBietxe5GfV1g-50" value="&lt;div style=&quot;text-align: left&quot;&gt;&lt;font style=&quot;font-size: 20px&quot;&gt;SSD&lt;/font&gt;&lt;/div&gt;&lt;font size=&quot;1&quot;&gt;&lt;div style=&quot;text-align: left ; font-size: 20px&quot;&gt;(W. Liu)&lt;/div&gt;&lt;/font&gt;" style="text;html=1;strokeColor=none;fillColor=none;align=center;verticalAlign=middle;whiteSpace=wrap;rounded=0;fontSize=22;" vertex="1" parent="1">
          <mxGeometry x="970" y="-130" width="110" height="70" as="geometry" />
        </mxCell>
        <mxCell id="xZTJwvYUBietxe5GfV1g-51" value="&lt;div style=&quot;text-align: left&quot;&gt;&lt;span style=&quot;font-size: 20px&quot;&gt;Ratina-Net&lt;/span&gt;&lt;/div&gt;&lt;font style=&quot;font-size: 20px&quot;&gt;&lt;div style=&quot;text-align: left&quot;&gt;&lt;span&gt;(T. Y. Lin)&lt;/span&gt;&lt;/div&gt;&lt;/font&gt;" style="text;html=1;strokeColor=none;fillColor=none;align=center;verticalAlign=middle;whiteSpace=wrap;rounded=0;fontSize=22;" vertex="1" parent="1">
          <mxGeometry x="1070" y="-70" width="140" height="60" as="geometry" />
        </mxCell>
        <mxCell id="xZTJwvYUBietxe5GfV1g-52" value="&lt;div style=&quot;text-align: left&quot;&gt;&lt;span style=&quot;font-size: 20px&quot;&gt;RCNN&lt;/span&gt;&lt;/div&gt;&lt;font style=&quot;font-size: 20px&quot;&gt;&lt;div style=&quot;text-align: left&quot;&gt;&lt;span&gt;(R. Girshick)&lt;/span&gt;&lt;/div&gt;&lt;/font&gt;" style="text;html=1;strokeColor=none;fillColor=none;align=center;verticalAlign=middle;whiteSpace=wrap;rounded=0;fontSize=22;" vertex="1" parent="1">
          <mxGeometry x="730" y="320" width="160" height="30" as="geometry" />
        </mxCell>
        <mxCell id="xZTJwvYUBietxe5GfV1g-53" value="&lt;div style=&quot;text-align: left&quot;&gt;&lt;span style=&quot;font-size: 20px&quot;&gt;SPPNet&lt;/span&gt;&lt;/div&gt;&lt;font style=&quot;font-size: 20px&quot;&gt;&lt;div style=&quot;text-align: left&quot;&gt;&lt;span&gt;(K. He)&lt;/span&gt;&lt;/div&gt;&lt;/font&gt;" style="text;html=1;strokeColor=none;fillColor=none;align=center;verticalAlign=middle;whiteSpace=wrap;rounded=0;fontSize=22;" vertex="1" parent="1">
          <mxGeometry x="820" y="400" width="100" height="30" as="geometry" />
        </mxCell>
        <mxCell id="xZTJwvYUBietxe5GfV1g-58" value="&lt;div style=&quot;text-align: left&quot;&gt;&lt;span style=&quot;font-size: 20px&quot;&gt;Fast RCNN&lt;/span&gt;&lt;/div&gt;&lt;font style=&quot;font-size: 20px&quot;&gt;&lt;div style=&quot;text-align: left&quot;&gt;&lt;span&gt;(R. Girshick)&lt;/span&gt;&lt;/div&gt;&lt;/font&gt;" style="text;html=1;strokeColor=none;fillColor=none;align=center;verticalAlign=middle;whiteSpace=wrap;rounded=0;fontSize=22;" vertex="1" parent="1">
          <mxGeometry x="890" y="470" width="120" height="60" as="geometry" />
        </mxCell>
        <mxCell id="xZTJwvYUBietxe5GfV1g-60" value="&lt;div style=&quot;text-align: left&quot;&gt;&lt;font style=&quot;font-size: 20px&quot;&gt;Faster RCNN&lt;/font&gt;&lt;/div&gt;&lt;font size=&quot;1&quot;&gt;&lt;div style=&quot;text-align: left ; font-size: 20px&quot;&gt;(P. F. Felzenszwalb)&lt;/div&gt;&lt;/font&gt;" style="text;html=1;strokeColor=none;fillColor=none;align=center;verticalAlign=middle;whiteSpace=wrap;rounded=0;fontSize=22;" vertex="1" parent="1">
          <mxGeometry x="900" y="550" width="270" height="55" as="geometry" />
        </mxCell>
        <mxCell id="xZTJwvYUBietxe5GfV1g-61" value="&lt;div style=&quot;text-align: left&quot;&gt;&lt;span style=&quot;font-size: 20px&quot;&gt;Pyramid networks&lt;/span&gt;&lt;/div&gt;&lt;font style=&quot;font-size: 20px&quot;&gt;&lt;div style=&quot;text-align: left&quot;&gt;&lt;span&gt;(T. Y. Lin)&lt;/span&gt;&lt;/div&gt;&lt;/font&gt;" style="text;html=1;strokeColor=none;fillColor=none;align=center;verticalAlign=middle;whiteSpace=wrap;rounded=0;fontSize=22;" vertex="1" parent="1">
          <mxGeometry x="1070" y="340" width="205" height="50" as="geometry" />
        </mxCell>
        <mxCell id="xZTJwvYUBietxe5GfV1g-62" style="edgeStyle=orthogonalEdgeStyle;rounded=0;orthogonalLoop=1;jettySize=auto;html=1;exitX=0.5;exitY=1;exitDx=0;exitDy=0;dashed=1;dashPattern=1 2;fontSize=20;strokeWidth=3;" edge="1" parent="1" source="xZTJwvYUBietxe5GfV1g-52" target="xZTJwvYUBietxe5GfV1g-52">
          <mxGeometry relative="1" as="geometry" />
        </mxCell>
        <mxCell id="xZTJwvYUBietxe5GfV1g-64" value="&lt;div style=&quot;text-align: left ; font-size: 24px&quot;&gt;&lt;b&gt;&lt;font style=&quot;font-size: 24px&quot;&gt;YOLO (v4)&lt;/font&gt;&lt;/b&gt;&lt;/div&gt;&lt;font style=&quot;font-size: 24px&quot;&gt;&lt;div style=&quot;text-align: left&quot;&gt;&lt;b&gt;(&lt;/b&gt;A. Bochkovskiy)&lt;/div&gt;&lt;/font&gt;" style="text;html=1;strokeColor=#B20000;fillColor=#e51400;align=center;verticalAlign=middle;whiteSpace=wrap;rounded=0;fontSize=22;fontColor=#ffffff;" vertex="1" parent="1">
          <mxGeometry x="1210" y="-130" width="190" height="70" as="geometry" />
        </mxCell>
        <mxCell id="xZTJwvYUBietxe5GfV1g-66" value="&lt;font style=&quot;font-size: 22px&quot;&gt;2020&lt;/font&gt;" style="text;html=1;strokeColor=none;fillColor=none;align=center;verticalAlign=middle;whiteSpace=wrap;rounded=0;" vertex="1" parent="1">
          <mxGeometry x="1260" y="140" width="60" height="30" as="geometry" />
        </mxCell>
        <mxCell id="xZTJwvYUBietxe5GfV1g-67" value="" style="endArrow=none;html=1;rounded=0;fontSize=22;strokeWidth=3;" edge="1" parent="1">
          <mxGeometry width="50" height="50" relative="1" as="geometry">
            <mxPoint x="1290" y="129.99999999999977" as="sourcePoint" />
            <mxPoint x="1380" y="-50" as="targetPoint" />
          </mxGeometry>
        </mxCell>
        <mxCell id="xZTJwvYUBietxe5GfV1g-69" value="&lt;div style=&quot;font-size: 24px&quot;&gt;&lt;b&gt;&lt;font style=&quot;font-size: 24px&quot;&gt;YOLO (v5)&lt;/font&gt;&lt;/b&gt;&lt;/div&gt;&lt;font style=&quot;font-size: 24px&quot;&gt;&lt;div&gt;&lt;b&gt;(&lt;/b&gt;G. Jocher)&lt;/div&gt;&lt;/font&gt;" style="text;html=1;strokeColor=#B20000;fillColor=#e51400;align=center;verticalAlign=middle;whiteSpace=wrap;rounded=0;fontSize=22;fontColor=#ffffff;" vertex="1" parent="1">
          <mxGeometry x="1290" y="-220" width="160" height="70" as="geometry" />
        </mxCell>
        <mxCell id="xZTJwvYUBietxe5GfV1g-70" value="" style="endArrow=none;html=1;rounded=0;fontSize=22;strokeWidth=3;" edge="1" parent="1">
          <mxGeometry width="50" height="50" relative="1" as="geometry">
            <mxPoint x="1319" y="128.99999999999977" as="sourcePoint" />
            <mxPoint x="1459" y="-161" as="targetPoint" />
          </mxGeometry>
        </mxCell>
      </root>
    </mxGraphModel>
  </diagram>
</mxfile>
